HIERARCHY
ROOT ui
{
	 OFFSET 0 0 0
	 CHANNELS 3 XPosition YPosition Z Position
	 EndSite
	 {
	 OFFSET 0 -1 0
	 }
}
ROOT li
{
	 OFFSET 0 0 0
	 CHANNELS 3 XPosition YPosition Z Position
	 EndSite
	 {
	 OFFSET 0 -1 0
	 }
}
ROOT ul
{
	 OFFSET 0 0 0
	 CHANNELS 3 XPosition YPosition Z Position
	 EndSite
	 {
	 OFFSET 0 -1 0
	 }
}
ROOT ll
{
	 OFFSET 0 0 0
	 CHANNELS 3 XPosition YPosition Z Position
	 EndSite
	 {
	 OFFSET 0 -1 0
	 }
}
ROOT tt
{
	 OFFSET 0 0 0
	 CHANNELS 3 XPosition YPosition Z Position
	 EndSite
	 {
	 OFFSET 0 -1 0
	 }
}
ROOT tb
{
	 OFFSET 0 0 0
	 CHANNELS 3 XPosition YPosition Z Position
	 EndSite
	 {
	 OFFSET 0 -1 0
	 }
}
ROOT td
{
	 OFFSET 0 0 0
	 CHANNELS 3 XPosition YPosition Z Position
	 EndSite
	 {
	 OFFSET 0 -1 0
	 }
}
ROOT v
{
	 OFFSET 0 0 0
	 CHANNELS 3 XPosition YPosition Z Position
	 EndSite
	 {
	 OFFSET 0 -1 0
	 }
}
ROOT bn
{
	 OFFSET 0 0 0
	 CHANNELS 3 XPosition YPosition Z Position
	 EndSite
	 {
	 OFFSET 0 -1 0
	 }
}
MOTION
Frames: 10
Frame Time: 0.002
-0.0020472679138183593	-0.007260137081146241	0		0.5655293579101562	-2.469939208984375	0		-1.0481026611328126	0.06424549102783203	0		-0.40320889282226563	-2.512591796875	0		1.835934814453125	-0.6295589599609375	0		3.3287265625	-0.6546781005859375	0		4.468580078125	-0.20051568603515624	0		5.88712158203125	0.3068585510253906	0		-0.3172215270996094	5.92306005859375	0		
-0.008222555160522461	0.00640000581741333	0		0.537434814453125	-2.447963134765625	0		-1.0633203125	0.07505657958984376	0		-0.3995449829101563	-2.507072509765625	0		1.8360008544921875	-0.599019775390625	0		3.34009375	-0.671336181640625	0		4.472044921875	-0.21107443237304688	0		5.88685791015625	0.3076815185546875	0		-0.2843929748535156	5.93014794921875	0		
0.02629009246826172	-0.0035830090045928954	0		0.5630161743164063	-2.4508212890625	0		-1.05267041015625	0.0744444580078125	0		-0.3978876037597656	-2.50456103515625	0		1.8230146484375	-0.5743211059570312	0		3.356969482421875	-0.6561041259765625	0		4.46072265625	-0.20944181823730468	0		5.8866181640625	0.3084568481445312	0		-0.31774087524414063	5.92417822265625	0		
0.005942203998565674	-0.006791789054870606	0		0.554858154296875	-2.439217041015625	0		-1.0529600830078125	0.07495200347900391	0		-0.3961811218261719	-2.502092041015625	0		1.83986328125	-0.5641044921875	0		3.3177490234375	-0.6500746459960938	0		4.45251904296875	-0.20288737487792968	0		5.88116259765625	0.26784356689453126	0		-0.2848544921875	5.93118505859375	0		
0.012852453231811523	0.003551529884338379	0		0.545728759765625	-2.4296416015625	0		-1.04409375	0.08227748107910156	0		-0.47215512084960937	-2.481510986328125	0		1.8170235595703126	-0.5363369750976562	0		3.30574365234375	-0.633485595703125	0		4.46099609375	-0.22161917114257812	0		5.88099267578125	0.26850799560546873	0		-0.31812774658203125	5.9251279296875	0		
-0.003458591938018799	-0.0048095531463623045	0		0.5065477905273438	-2.427666259765625	0		-1.10129541015625	0.08153490447998046	0		-0.45741690063476564	-2.48532958984375	0		1.827017333984375	-0.5241029663085938	0		3.3303330078125	-0.64848486328125	0		4.45187548828125	-0.21712471008300782	0		5.89232763671875	0.2773478698730469	0		-0.2822142639160156	5.92799462890625	0		
0.030390989303588866	-0.006966776847839355	0		0.5634389038085937	-2.42616943359375	0		-1.0882344970703124	0.09369573211669922	0		-0.4843680114746094	-2.472577392578125	0		1.83423876953125	-0.5008727722167968	0		3.328807861328125	-0.6081321411132813	0		4.46380078125	-0.21398345947265626	0		5.89957763671875	0.31049447631835936	0		-0.31734893798828123	5.92486669921875	0		
4.149009883403778E-4	-0.0012253700494766235	0		0.5487049560546875	-2.403655517578125	0		-1.00625244140625	0.09577406311035157	0		-0.4583151550292969	-2.464668212890625	0		1.8195419921875	-0.47636376953125	0		3.30564990234375	-0.61450634765625	0		4.45453857421875	-0.2275697021484375	0		5.88022021484375	0.3012825927734375	0		-0.3334972839355469	5.91740234375	0		
0.02237468147277832	-0.0043113470077514645	0		0.5466798095703125	-2.405384765625	0		-1.0832369384765625	0.09716294097900391	0		-0.4623847961425781	-2.469366455078125	0		1.8167125244140625	-0.4650809020996094	0		3.314759521484375	-0.6074032592773437	0		4.446650390625	-0.22021466064453124	0		5.88508935546875	0.28075149536132815	0		-0.33348431396484374	5.91764404296875	0		
0.0013645980358123779	-0.008810762405395509	0		0.5467471923828126	-2.405196044921875	0		-0.9970803833007813	0.1030666732788086	0		-0.4303952331542969	-2.474656005859375	0		1.816775634765625	-0.46488949584960937	0		3.306987548828125	-0.596090576171875	0		4.442638671875	-0.22495724487304689	0		5.8894765625	0.29132281494140627	0		-0.16705197143554687	5.9423564453125	0		
